<?xml version="1.0" encoding="utf-8"?>
<svg xmlns="http://www.w3.org/2000/svg" height="1065" viewBox="0 0 4032 4260" width="1008">
<path d="M2368 680.04 c-22.67 .73 -58.22 1.6 -102.5 2.5 -13.2 .27 -51 1.16 -84 1.97&#xA;-60.97 1.51 -112.12 2.66 -197.5 4.47 -26.12 .55 -54.25 1.4 -62.5 1.89 -8.25&#xA;.48 -17.03 .86 -19.5 .83 -2.47 -.03 -12.6 .27 -22.5 .66 -30.36 1.2 -70.3&#xA;2.05 -84.5 1.78 -7.42 -.14 -18.42 .22 -24.43 .79 l-10.93 1.04 -22.57 11.14&#xA;c-12.41 6.13 -39.67 19.44 -60.57 29.59 -20.9 10.15 -46.1 22.52 -56 27.49&#xA;-19.65 9.87 -63.32 31.02 -92.5 44.81 -10.17 4.81 -33.58 16.16 -52 25.23&#xA;-18.42 9.07 -46.1 22.45 -61.5 29.74 -15.4 7.29 -48.47 23.27 -73.5 35.52&#xA;-47.21 23.11 -77.4 37.55 -92 44.01 -13.91 6.15 -52.85 25.96 -61.98 31.52&#xA;-4.67 2.84 -10.07 6.55 -12 8.24 -5.19 4.53 -19.51 20.94 -49.17 56.36 -20.37&#xA;24.31 -37.16 44.15 -75.66 89.37 -12.88 15.12 -27.8 32.68 -33.16 39 -5.36&#xA;6.32 -15.09 17.8 -21.63 25.5 -6.54 7.7 -13.9 16.47 -16.35 19.5 -2.45 3.03&#xA;-8.78 10.45 -14.05 16.5 -5.27 6.05 -16.25 19.1 -24.38 29 -27.03 32.88&#xA;-36.28 43.9 -45.88 54.64 -10.24 11.45 -19.53 23.45 -22.09 28.51 -2.04 4.04&#xA;-5.54 21.41 -10.66 52.85 -2.24 13.75 -7.42 44.8 -11.51 69 -4.09 24.2 -10.14&#xA;60.2 -13.44 80 -3.3 19.8 -6.45 37.53 -6.99 39.4 -.55 1.87 -1.98 4.79 -3.18&#xA;6.5 -3.01 4.28 -33.66 30.65 -56.3 48.44 -3.26 2.56 -16.99 14.12 -30.5 25.69&#xA;-13.51 11.57 -26.82 22.82 -29.57 25 -16.12 12.8 -35.61 29.78 -46.6 40.58&#xA;-6.93 6.81 -18.85 19.17 -26.5 27.45 -7.65 8.28 -23.16 24.93 -34.48 37&#xA;-11.32 12.07 -31.75 34.09 -45.4 48.94 -13.65 14.85 -27.79 30.16 -31.42&#xA;34.02 -27.66 29.43 -53.83 58.15 -57.98 63.62 -5.43 7.17 -9.12 13.54 -9.12&#xA;15.74 0 1.7 -7.13 22.69 -11.25 33.12 -3.45 8.72 -21.29 56.68 -32.91 88.5&#xA;-4.42 12.1 -11.11 31.22 -14.86 42.5 -6.43 19.34 -20.18 58.15 -30.45 86&#xA;-2.54 6.88 -7.53 19.86 -11.1 28.85 -4.18 10.52 -6.51 17.83 -6.54 20.5 -.03&#xA;2.28 1.55 14.95 3.5 28.15 1.95 13.2 5.15 34.8 7.11 48 7.32 49.39 12.23&#xA;86.78 14.04 107 .35 3.85 1.92 18.03 3.5 31.5 1.58 13.47 3.36 30.23 3.97&#xA;37.23 .61 7 1.97 17.28 3.03 22.85 1.14 6.01 1.68 8.94 6.22 17.7 4.54 8.77&#xA;13.08 23.37 30.24 52.72 2.89 4.95 7.2 12.6 9.57 17 2.37 4.4 7.98 14.3 12.46&#xA;22 4.49 7.7 10.31 17.82 12.95 22.5 11.31 20.04 17.34 29.5 25.44 39.88 4.73&#xA;6.07 15.15 18.82 23.14 28.33 21.42 25.49 40.85 49.54 62.02 76.79 11.29&#xA;14.53 12.56 16 13.83 16 .57 0 1.45 -1.69 1.95 -3.75 1.06 -4.39 7.14 -68.18&#xA;7.27 -76.25 .22 -13.89 3.86 -73.82 7.93 -130.5 1.8 -25.09 5.01 -50.19 12.47&#xA;-97.5 1.43 -9.07 3.77 -19.79 5.21 -23.81 2.41 -6.77 12.53 -24.18 21.61&#xA;-37.21 2.1 -3.01 8.79 -13.13 14.87 -22.48 6.08 -9.35 16.13 -23.75 22.33 -32&#xA;6.21 -8.25 14.81 -18.41 19.13 -22.58 4.31 -4.17 10.99 -9.44 14.84 -11.71&#xA;6.21 -3.66 31.95 -15.4 69.5 -31.7 6.88 -2.99 20.24 -8.82 29.71 -12.97 9.46&#xA;-4.15 17.52 -7.54 17.9 -7.54 .38 0 8.63 -3.8 18.33 -8.44 9.7 -4.64 21.22&#xA;-9.99 25.6 -11.88 18.24 -7.88 27.63 -12.07 39.46 -17.63 6.88 -3.23 16.1&#xA;-7.43 20.5 -9.34 9.98 -4.34 33.18 -14.73 49 -21.96 23.6 -10.77 52.18 -25.65&#xA;63 -32.78 7.99 -5.27 13.6 -10 20.5 -17.29 5.22 -5.52 15.18 -15.94 22.12&#xA;-23.16 6.94 -7.22 12.92 -14.06 13.28 -15.21 .38 -1.21 -.21 -4.42 -1.41&#xA;-7.63 -2.22 -5.92 -12.54 -22.62 -25.32 -40.95 -9.82 -14.08 -34.07 -51.16&#xA;-42.6 -65.15 -3.54 -5.81 -8.4 -12.8 -10.8 -15.54 -3.91 -4.47 -12.25 -11.57&#xA;-37.77 -32.16 -17.04 -13.75 -31.98 -25.16 -57.98 -44.32 -43.44 -32 -57.37&#xA;-42.46 -61.51 -46.2 -3.12 -2.82 -4.79 -5.83 -8.4 -15.19 -2.48 -6.42 -6.6&#xA;-17.53 -9.16 -24.68 -2.56 -7.15 -8.12 -22 -12.36 -33 -4.24 -11 -9.34 -24.5&#xA;-11.34 -30 -8.28 -22.76 -20.09 -54.61 -23.49 -63.33 -2.32 -5.94 -4.64&#xA;-10.17 -6.39 -11.65 -2.94 -2.48 -6.2 -3.02 -24.35 -4.05 -5.5 -.31 -13.07&#xA;-1.04 -16.82 -1.62 -5.35 -.83 -6.7 -1.37 -6.25 -2.54 .31 -.81 .57 -1.62 .57&#xA;-1.79 0 -.17 10.01 -8.78 22.25 -19.13 12.24 -10.35 31.47 -26.73 42.75 -36.4&#xA;23.34 -20.02 37.61 -31.59 47 -38.15 6.41 -4.48 15.44 -8.45 36 -15.84 5.77&#xA;-2.08 22.88 -8.5 38 -14.27 15.12 -5.77 32.67 -12.4 39 -14.72 47 -17.28&#xA;49.04 -17.95 51.27 -17.07 2.59 1.02 10 8.53 18.38 18.61 6.51 7.84 24.09&#xA;27.45 43.86 48.92 7.15 7.77 22.42 25.3 33.93 38.97 11.51 13.67 25.8 29.77&#xA;31.75 35.79 5.95 6.02 10.82 11.73 10.82 12.7 0 .97 -1.35 8.15 -3.01 15.95&#xA;-1.62 7.65 -2.39 11.28 -4.63 22.63 -2.23 11.35 -5.93 30.43 -13.4 69 -5.54&#xA;28.6 -12.56 62.8 -15.61 76 -3.36 14.58 -5.54 26.36 -5.55 30 -.02 5.3 3.29&#xA;25.39 11.61 70.5 1.37 7.43 3.2 18.68 4.06 25 .86 6.33 2.41 15.68 3.43 20.78&#xA;1.27 6.34 2.75 10.55 4.66 13.31 1.54 2.22 4.05 5.09 5.59 6.39 2.16 1.82&#xA;4.45 2.48 10.07 2.94 4 .32 27.53 .81 52.28 1.08 24.75 .27 50.62 .72 57.5 1&#xA;46.02 1.86 72.54 2.59 109 2.99 22.83 .25 60.4 1.12 83.5 1.95 23.1 .82 63.7&#xA;1.73 90.22 2.02 26.52 .29 49.92 .75 52 1.03 7.36 .98 52.14 2.48 78.28 2.63&#xA;14.58 .08 34.38 .53 44 1 9.62 .47 23.45 1.09 30.72 1.4 7.27 .3 14.18 .9&#xA;15.34 1.33 l2.12 .78 -2.34 2.17 c-4.72 4.37 -15.3 12.35 -20.8 15.69 -3.11&#xA;1.89 -7.75 3.9 -10.32 4.48 -2.57 .58 -6.38 1.69 -8.45 2.47 -2.07 .78 -8.95&#xA;1.9 -15.27 2.48 -10.46 .96 -33.94 3.5 -70 7.56 -7.42 .84 -24.75 2.42 -38.5&#xA;3.51 -13.75 1.09 -29.5 2.43 -35 2.97 -5.5 .54 -13.15 1.25 -17 1.58 -10.09&#xA;.85 -82.55 9.11 -105.5 12.01 -18.8 2.38 -29.37 4.12 -72.5 11.95 -41.16 7.47&#xA;-55.08 10.14 -71 13.63 -4.95 1.08 -15.75 3.28 -24 4.89 -8.25 1.6 -19.95&#xA;4.06 -26 5.45 -45.65 10.52 -67.2 15.03 -88.5 18.5 -10.17 1.66 -21.65 3.7&#xA;-25.5 4.53 -3.85 .83 -11.28 2.17 -16.5 2.96 -5.22 .79 -14.9 2.62 -21.5 4.06&#xA;-6.6 1.44 -14.47 3.08 -17.5 3.65 -6.21 1.17 -21.98 6.84 -29.5 10.61 -2.75&#xA;1.38 -16.47 9.36 -30.5 17.73 -50.72 30.29 -70.44 41.39 -106.5 59.95 -10.45&#xA;5.38 -23.82 12.46 -29.71 15.74 -10.97 6.1 -26.76 13.54 -53.29 25.1 -47.48&#xA;20.7 -58.03 26.04 -78.5 39.75 -4.67 3.13 -13.03 9.47 -18.56 14.08 -5.53&#xA;4.61 -16.07 13.11 -23.42 18.89 -7.35 5.78 -20.6 16.73 -29.44 24.34 -18.42&#xA;15.86 -55.26 50.26 -56.74 52.99 -.55 1.01 -.7 2.13 -.34 2.49 1.74 1.74&#xA;26.09 -.86 69.01 -7.39 25.53 -3.88 43.78 -7.1 65.5 -11.55 7.98 -1.63 16.98&#xA;-3.44 20 -4.01 3.02 -.57 19.23 -4.33 36 -8.35 16.77 -4.02 34.77 -8.28 40&#xA;-9.46 5.23 -1.18 19.85 -4.56 32.5 -7.52 12.65 -2.95 25.7 -5.91 29 -6.58 3.3&#xA;-.66 18.38 -4.27 33.5 -8.03 30.71 -7.62 43.12 -10.59 50.5 -12.1 4.75 -.97&#xA;36.18 -1.32 165.19 -1.85 28.7 -.12 52.78 .15 53.5 .6 .72 .44 8.43 6.23&#xA;17.13 12.85 8.7 6.62 23.41 17.44 32.69 24.04 15.83 11.26 40.94 29.44 61.49&#xA;44.5 4.95 3.63 10.58 7.68 12.5 9 8.57 5.87 37.99 27.8 45.85 34.18 4.76 3.86&#xA;12.52 10.75 17.25 15.3 4.73 4.55 12.55 13.09 17.39 18.97 4.83 5.88 10.69&#xA;14.03 13.02 18.1 2.74 4.81 6.58 14.7 10.92 28.18 3.68 11.42 13.65 41.91&#xA;22.14 67.76 12.31 37.44 18.43 56.07 21.48 66.05 3.04 9.97 3.01 11.29 2.99&#xA;14.11 -.02 2.84 -1.13 12.74 -2.47 22 -1.34 9.26 -3.82 29.67 -5.52 45.34&#xA;-4.82 44.67 -13.18 114.23 -19.52 162.5 -1.3 9.9 -3.09 24.75 -3.97 33 -.88&#xA;8.25 -2.25 20.18 -3.05 26.5 -2.8 22.21 -4.63 37.62 -6.02 50.5 -1.99 18.46&#xA;-8.22 70.95 -9.97 84 -.81 6.05 -2.63 21.12 -4.04 33.5 -1.41 12.38 -3.67&#xA;29.83 -5.02 38.78 -1.35 8.96 -2.45 17.73 -2.43 19.5 .03 4.08 3.3 11.37 6.79&#xA;15.09 3.8 4.06 11.8 7.6 17.19 7.61 6.78 .01 11.43 -3.39 23.21 -16.99 3.58&#xA;-4.12 10.7 -12.9 15.84 -19.5 5.14 -6.6 19.07 -23.7 30.96 -38 11.89 -14.3&#xA;24.94 -30.28 29.01 -35.5 10.3 -13.24 38.93 -47.24 41.03 -48.73 1.47 -1.04&#xA;1.83 -.89 2.37 1 .35 1.23 1.5 7.18 2.55 13.23 1.05 6.05 3.07 17.3 4.49 25&#xA;2.43 13.19 4.35 24.21 13.04 75 3.64 21.27 6.9 38.96 15.01 81.5 5.54 29.03&#xA;16.93 89.73 19.59 104.36 1.95 10.74 3.61 15.38 6.78 18.99 2.66 3.03 9.02&#xA;5.78 14.75 6.37 3.73 .38 6.69 .05 9.7 -1.1 2.39 -.91 5.51 -2.89 6.94 -4.39&#xA;1.43 -1.5 3.93 -5.43 5.55 -8.73 1.62 -3.3 5.06 -11.4 7.63 -18 2.57 -6.6 6.2&#xA;-15.6 8.06 -20 1.86 -4.4 4.95 -12.05 6.86 -17 1.91 -4.95 8.74 -21.6 15.17&#xA;-37 6.43 -15.4 13.84 -33.18 16.45 -39.5 7.98 -19.3 21.04 -51.04 24.49 -59.5&#xA;4.1 -10.06 17.26 -41.63 32.63 -78.27 6.52 -15.55 12.12 -29.28 12.43 -30.5&#xA;.32 -1.22 1.22 -3.1 2.02 -4.17 1.04 -1.4 1.75 -1.64 2.53 -.86 .6 .6 2.12&#xA;5.75 3.39 11.45 1.27 5.7 9.07 37.36 17.33 70.36 8.26 33 17.11 68.78 19.66&#xA;79.5 2.55 10.72 10.65 43.35 18 72.5 7.35 29.15 14.78 59.07 16.51 66.5 1.73&#xA;7.43 7.87 32.62 13.64 56 9.77 39.61 22.82 93.59 29.37 121.5 1.55 6.6 3.69&#xA;14.03 4.77 16.51 1.07 2.48 3.2 5.99 4.72 7.79 3.98 4.73 10.01 7.56 16.18&#xA;7.6 4.03 .02 6.78 -.79 12.5 -3.71 4.04 -2.06 11.16 -6.5 15.84 -9.88 10.03&#xA;-7.24 151.93 -102.15 176.32 -117.93 9.25 -5.98 17.88 -10.88 19.16 -10.88&#xA;1.71 0 5.25 3.17 13.13 11.75 5.93 6.46 16.04 17.38 22.47 24.25 6.42 6.88&#xA;15.17 16.55 19.43 21.5 4.26 4.95 12.54 14.18 18.4 20.5 5.86 6.32 16.47&#xA;18.03 23.58 26 7.11 7.97 17.47 19.45 23.02 25.5 5.55 6.05 14.11 15.5 19.01&#xA;21 4.9 5.5 14.33 15.85 20.94 23 6.62 7.15 14.93 16.38 18.48 20.5 3.55 4.12&#xA;9.85 11.1 14 15.51 4.15 4.4 11.52 12.57 16.38 18.14 4.85 5.57 10.6 11.56&#xA;12.76 13.3 2.16 1.74 5.49 3.81 7.39 4.61 1.9 .79 5.87 1.44 8.82 1.44 4.36 0&#xA;6.28 -.6 10.28 -3.23 2.71 -1.77 24.72 -22.81 48.92 -46.75 24.2 -23.94 88.78&#xA;-87.6 143.5 -141.47 54.72 -53.87 115.93 -114.17 136 -134.01 20.07 -19.83&#xA;59.22 -58.31 87 -85.5 27.78 -27.19 79.75 -78.27 115.5 -113.52 35.75 -35.24&#xA;82.1 -80.8 103 -101.23 20.9 -20.43 52.46 -51.7 70.14 -69.49 17.68 -17.79&#xA;33.32 -32.98 34.75 -33.74 2.14 -1.15 3.01 -1.18 4.86 -.18 4.14 2.24 49.43&#xA;36.7 95.41 72.57 7.79 6.08 23.06 17.8 33.93 26.05 10.88 8.25 25.43 19.51&#xA;32.34 25.02 17.86 14.24 28.97 22.05 36.25 25.49 6.99 3.31 13.25 3.87 17.62&#xA;1.57 3.13 -1.64 10.45 -9.08 12.08 -12.25 .61 -1.2 1.79 -8.17 2.61 -15.5&#xA;4.15 -36.91 7.91 -68.5 10.52 -88.33 1.59 -12.1 4.73 -37.07 6.98 -55.5 7.15&#xA;-58.55 10.02 -81.06 12.49 -98 1.33 -9.07 3.34 -23.03 4.48 -31 2.14 -15 3.78&#xA;-22 5.16 -22 .44 0 3.58 2.48 6.98 5.51 3.4 3.03 8.7 7.04 11.79 8.9 3.08&#xA;1.86 7.46 3.94 9.73 4.61 3.27 .97 4.9 .96 7.92 -.03 2.09 -.69 5.78 -3.08&#xA;8.21 -5.32 2.43 -2.24 5.35 -5.89 6.49 -8.12 2.06 -4.03 2.06 -4.28 .87&#xA;-55.04 -.66 -28.05 -1.63 -59.78 -2.16 -70.5 -1.29 -25.94 -3.11 -119.4 -2.36&#xA;-121.35 .43 -1.12 1.17 -1.31 2.75 -.7 3.32 1.28 26.92 17.52 65.66 45.19&#xA;5.78 4.12 19.5 13.75 30.5 21.39 11 7.64 25.4 17.71 32 22.38 6.6 4.67 14.95&#xA;10.02 18.56 11.88 4.65 2.4 7.89 3.38 11.14 3.38 2.52 -0 6.1 -.76 7.94 -1.7&#xA;4.73 -2.38 9.68 -7.28 12.08 -11.94 1.73 -3.36 1.95 -5.13 1.46 -11.56 -.32&#xA;-4.18 -1.98 -16.12 -3.67 -26.53 -3.66 -22.46 -8.56 -56.23 -22.05 -151.94&#xA;-5.5 -39.05 -11.14 -77.73 -12.53 -85.95 -1.39 -8.22 -6.76 -44 -11.93 -79.5&#xA;-5.17 -35.5 -11.48 -78.5 -14.01 -95.55 -13.52 -90.92 -22.16 -150.62 -29.96&#xA;-207 -2.51 -18.15 -6.13 -42.92 -8.05 -55.05 -1.91 -12.12 -7.96 -53.3 -13.44&#xA;-91.5 -5.48 -38.2 -12.69 -86.78 -16.03 -107.95 -3.34 -21.18 -9.86 -64.82&#xA;-14.49 -97 -4.63 -32.18 -10.03 -69.07 -11.99 -82 -1.97 -12.93 -4.67 -30.7&#xA;-6 -39.5 -4.38 -28.89 -7.54 -47.85 -9.57 -57.5 -1.58 -7.51 -2.78 -10.59&#xA;-5.73 -14.68 -2.05 -2.85 -8.68 -10.53 -14.73 -17.07 -6.05 -6.54 -15.28&#xA;-17.02 -20.5 -23.29 -5.22 -6.27 -14.22 -16.78 -20 -23.36 -21.91 -24.97&#xA;-98.57 -114.11 -114.02 -132.6 -15.25 -18.25 -41.78 -48.78 -53.86 -62 -10.48&#xA;-11.47 -45.42 -47.87 -79.66 -82.99 -19.55 -20.05 -27.55 -28.47 -48.96&#xA;-51.51 -7.66 -8.25 -20.92 -22.22 -29.46 -31.04 -8.54 -8.82 -20.48 -21.21&#xA;-26.53 -27.54 -6.05 -6.32 -20.7 -21.61 -32.56 -33.96 -11.86 -12.35 -28.96&#xA;-30.32 -38 -39.92 -9.04 -9.6 -23.87 -25.13 -32.94 -34.5 -9.07 -9.37 -26.4&#xA;-27.57 -38.49 -40.44 -12.1 -12.86 -25.17 -26.16 -29.04 -29.54 -3.92 -3.42&#xA;-11.03 -8.17 -16.01 -10.71 -9.11 -4.64 -13.69 -6.45 -64.96 -25.77 -15.95&#xA;-6.01 -42.5 -16.4 -59 -23.08 -16.5 -6.68 -34.05 -13.64 -39 -15.45 -14.33&#xA;-5.26 -62.53 -23.68 -93 -35.55 -15.4 -6 -39.7 -15.37 -54 -20.83 -30.72&#xA;-11.74 -65.68 -25.41 -122.5 -47.91 -22.82 -9.04 -44.76 -17.53 -48.75 -18.87&#xA;-3.99 -1.34 -11.64 -3.1 -17 -3.9 -5.36 -.81 -13.13 -1.4 -17.25 -1.32 -4.12&#xA;.08 -17.62 .48 -30 .88z m58.68 47.86 c7.05 2.69 24.3 9.38 38.32 14.85 14.03&#xA;5.47 33.15 12.9 42.5 16.51 9.35 3.6 33.88 13.17 54.5 21.25 36.36 14.25&#xA;51.81 20.19 95.15 36.55 11.36 4.29 28.46 10.96 38 14.82 52.83 21.37 93.28&#xA;37.08 132.34 51.39 1.64 .6 3.78 1.84 4.76 2.75 1.68 1.57 1.58 1.72 -1.98&#xA;2.85 -2.07 .66 -8.49 2.01 -14.26 3.01 -10.94 1.9 -54.6 10.06 -80.5 15.05&#xA;-8.25 1.59 -22.88 4.33 -32.5 6.09 -9.62 1.76 -22.68 4.44 -29.02 5.96 -9.99&#xA;2.39 -13.91 4.02 -29.5 12.24 -47.32 24.96 -75.8 39.72 -85.44 44.28 -14.09&#xA;6.67 -62.87 31.76 -92.04 47.33 -12.93 6.9 -27.67 14.44 -32.78 16.75 -11.34&#xA;5.13 -59.34 29.68 -89.5 45.78 -12.22 6.52 -34.37 17.87 -49.22 25.21 -29.15&#xA;14.42 -56.18 28.33 -85.61 44.06 -10.24 5.47 -22.39 11.71 -27 13.87 -4.61&#xA;2.15 -18.96 9.3 -31.89 15.87 -12.93 6.58 -29.61 15 -37.08 18.72 -7.47 3.72&#xA;-16.02 8.22 -19 10.01 -2.98 1.79 -24.32 12.79 -47.42 24.44 -67.17 33.89&#xA;-88.7 44.93 -93.5 47.97 -2.47 1.56 -14.17 7.62 -26 13.45 -28.33 13.97&#xA;-81.07 40.89 -101.33 51.72 -8.89 4.75 -23.81 12.37 -33.17 16.93 -9.35 4.56&#xA;-26.46 13.31 -38.01 19.45 -11.55 6.13 -45.97 23.89 -76.5 39.45 -30.53 15.56&#xA;-66.75 34.22 -80.5 41.47 -13.75 7.24 -42.1 21.67 -63 32.07 -20.9 10.39&#xA;-42.95 21.67 -49 25.05 -6.05 3.38 -34.17 17.87 -62.5 32.2 -28.33 14.32&#xA;-57.35 29.19 -64.5 33.04 -7.15 3.85 -34.38 17.79 -60.5 30.99 -26.12 13.2&#xA;-54.92 28.05 -64 33 -28.72 15.68 -46.26 24.69 -48.02 24.69 -.94 0 -2.93&#xA;-.96 -4.43 -2.14 -1.49 -1.18 -7.44 -7.81 -13.21 -14.75 -10.59 -12.72 -22.24&#xA;-25.92 -43.34 -49.09 -6.33 -6.95 -14.6 -16.21 -18.38 -20.58 -3.78 -4.37&#xA;-13.47 -15.15 -21.53 -23.95 -8.06 -8.8 -18.87 -20.95 -24.04 -27 -11.94&#xA;-13.99 -20.5 -22.94 -25.46 -26.61 -3.17 -2.35 -4.91 -2.89 -9.3 -2.89 -4.16&#xA;0 -9.11 1.39 -21.6 6.07 -8.91 3.34 -25.42 9.67 -36.7 14.06 -28.39 11.07&#xA;-32.1 12.48 -61 23.18 -14.02 5.19 -26.47 9.67 -27.66 9.95 -1.6 .37 -2.32&#xA;-.05 -2.75 -1.63 -.32 -1.17 .08 -6.41 .89 -11.63 4.72 -30.39 11.93 -75.02&#xA;13.64 -84.5 1.09 -6.05 2.61 -14.82 3.36 -19.5 .75 -4.68 2.54 -15.03 3.98&#xA;-23 1.44 -7.97 3.06 -17.43 3.61 -21 .55 -3.57 1.86 -11 2.91 -16.5 1.05 -5.5&#xA;2.2 -12.47 2.56 -15.5 .36 -3.03 1.44 -7.3 2.41 -9.5 .96 -2.2 4.45 -7.62&#xA;7.75 -12.05 8.89 -11.94 27.84 -35.09 41.71 -50.95 6.73 -7.7 15.87 -18.5&#xA;20.31 -24 4.44 -5.5 14.76 -17.93 22.93 -27.62 8.17 -9.69 21.83 -25.89 30.34&#xA;-36 8.52 -10.11 26.07 -30.72 39 -45.8 12.93 -15.08 25.98 -30.38 28.98 -34&#xA;3.01 -3.62 16.98 -20.08 31.05 -36.58 14.07 -16.5 32.74 -38.78 41.49 -49.5&#xA;8.75 -10.72 19.08 -22.68 22.95 -26.57 5.52 -5.53 8.88 -7.92 15.51 -11 4.66&#xA;-2.16 17.71 -8.52 29 -14.13 11.29 -5.61 24.13 -11.73 28.53 -13.61 7.37&#xA;-3.15 35.02 -16.64 105.11 -51.29 14.91 -7.37 27.39 -13.4 27.74 -13.4 1.49 0&#xA;22.88 -9.95 45.15 -21.01 30.15 -14.97 86.79 -42.33 100 -48.3 5.5 -2.49 29.8&#xA;-14.4 54 -26.48 24.2 -12.08 52.33 -25.85 62.5 -30.61 10.17 -4.76 24.58&#xA;-11.72 32 -15.47 7.42 -3.75 25.65 -12.98 40.5 -20.51 26.3 -13.33 27.23&#xA;-13.71 35.71 -14.64 10 -1.09 30.86 -1.74 79.79 -2.47 18.97 -.28 53.62 -1.18&#xA;77 -2 23.38 -.82 65.9 -1.96 94.5 -2.54 28.6 -.58 53.57 -1.26 55.5 -1.52&#xA;1.93 -.26 35 -1.15 73.5 -1.99 38.5 -.83 79.45 -1.95 91 -2.49 11.55 -.54&#xA;47.1 -1.25 79 -1.59 31.9 -.34 58.19 -.79 58.42 -1 .23 -.21 7.51 -.39 16.18&#xA;-.39 l15.76 0 12.82 4.9z m509.99 223.32 c16.96 17.72 37.83 39.43 46.38&#xA;48.25 21.04 21.7 35.96 37.34 64.94 68.07 24.88 26.38 40.69 42.76 81.05&#xA;83.96 12.39 12.65 32.19 33.33 44 45.96 11.81 12.63 23.21 24.55 25.34 26.5&#xA;2.13 1.95 10.72 10.98 19.1 20.06 8.37 9.09 22.04 23.61 30.37 32.27 8.33&#xA;8.66 21.77 23.51 29.87 32.98 8.1 9.47 23.97 28.03 35.27 41.23 11.3 13.2&#xA;22.56 26.47 25.03 29.5 6.75 8.27 33.37 39.34 41.98 49 4.17 4.68 13.71 15.7&#xA;21.2 24.5 7.49 8.8 18.62 21.85 24.73 29 28.31 33.13 36.09 42.69 36.68 45.06&#xA;.51 2.03 -.67 4.68 -5.64 12.75 -7.34 11.89 -42.53 70.15 -74.71 123.69 -12.4&#xA;20.62 -24.21 39.97 -26.25 43 -2.04 3.03 -7.22 11.8 -11.52 19.5 -4.3 7.7&#xA;-10.26 17.81 -13.26 22.46 -5.32 8.27 -23.55 38.45 -46.22 76.54 -6.22 10.45&#xA;-17.25 28.68 -24.52 40.5 -7.27 11.82 -22.76 37.41 -34.44 56.86 -11.67 19.45&#xA;-24.4 40.38 -28.28 46.5 -14.63 23.09 -35.61 57.43 -39.79 65.14 -4.48 8.26&#xA;-28.99 49.32 -54 90.5 -7.85 12.93 -17.55 28.97 -21.56 35.65 -10.99 18.33&#xA;-30.04 48.9 -35.73 57.35 -2.78 4.13 -7.33 9.92 -10.11 12.87 -5.35 5.68&#xA;-17.67 16.48 -31.27 27.42 -4.52 3.63 -16.62 13.94 -26.9 22.91 -10.28 8.97&#xA;-27.28 23.5 -37.79 32.31 -10.51 8.8 -34.63 29.36 -53.6 45.69 -18.97 16.33&#xA;-41.73 35.9 -50.56 43.49 -8.83 7.59 -23.39 20.11 -32.35 27.81 -8.96 7.7&#xA;-26.06 22.32 -38.01 32.5 -35.42 30.16 -69.32 59.31 -89.58 77.04 -10.45 9.14&#xA;-31.15 26.89 -46 39.45 -14.85 12.55 -36.68 31.25 -48.5 41.54 -21.34 18.58&#xA;-75.03 64.75 -81.91 70.44 -1.97 1.63 -14.16 12.01 -27.09 23.06 -12.93 11.05&#xA;-31.6 26.8 -41.5 35.01 -17.38 14.41 -52.35 44.47 -76.82 66.05 -6.5 5.73&#xA;-12.51 10.42 -13.34 10.42 -.84 0 -7.67 -3.76 -15.18 -8.36 -29.43 -18 -65.52&#xA;-39.85 -83.16 -50.34 -10.18 -6.05 -30.88 -18.45 -46 -27.56 -15.12 -9.11&#xA;-59.22 -35.6 -98 -58.87 -38.78 -23.27 -93.22 -56 -121 -72.74 -27.78 -16.74&#xA;-53.88 -32.33 -58.02 -34.65 -4.14 -2.32 -10.02 -5.82 -13.07 -7.78 -24.93&#xA;-15.95 -105.79 -63.43 -115.56 -67.86 -3.57 -1.62 -10.62 -4.03 -15.67 -5.36&#xA;-5.05 -1.33 -18.63 -4.46 -30.18 -6.96 -23.64 -5.12 -82.79 -18.44 -98 -22.07&#xA;-5.5 -1.31 -25.08 -5.76 -43.5 -9.88 -45.35 -10.14 -93.45 -21.16 -105 -24.04&#xA;-5.22 -1.31 -14.45 -3.35 -20.5 -4.53 -6.05 -1.19 -15.28 -3.2 -20.5 -4.48&#xA;-5.22 -1.28 -18.95 -4.44 -30.5 -7.03 -11.55 -2.59 -31.58 -7.12 -44.5 -10.06&#xA;-12.92 -2.94 -34.08 -7.62 -47 -10.39 -12.92 -2.77 -30.03 -6.59 -38 -8.48&#xA;-7.97 -1.89 -19.45 -4.38 -25.5 -5.52 -6.05 -1.14 -16.4 -3.28 -23 -4.76 -6.8&#xA;-1.52 -8.54 -2.24 -20.13 -2.53 -11.59 -.29 -33.03 -.16 -79.23 .02 -32.72&#xA;.13 -57.04 -.16 -57.99 -.69 -1.39 -.78 -.99 -1.53 2.71 -5.05 6.73 -6.4 44.8&#xA;-34.42 63 -46.36 9 -5.91 20.93 -13.16 26.5 -16.11 5.57 -2.96 14.41 -6.74&#xA;19.63 -8.4 9.67 -3.08 51.57 -15.89 67 -20.48 58.48 -17.38 83.62 -24.19&#xA;102.09 -27.67 6.27 -1.18 15.23 -3.04 19.91 -4.14 15.91 -3.73 51.41 -9.92&#xA;99.5 -17.36 26.4 -4.08 61.5 -9.66 78 -12.41 16.5 -2.74 40.35 -6.58 53 -8.53&#xA;41.66 -6.42 95.83 -14.69 105.5 -16.1 44.9 -6.57 53.09 -8.39 64.73 -14.33&#xA;2.26 -1.15 6.95 -4.49 10.43 -7.42 3.48 -2.93 12.78 -10.25 20.67 -16.27&#xA;37.61 -28.71 40.55 -31.11 43.41 -35.36 1.13 -1.68 1.75 -4.52 1.75 -8.09 0&#xA;-3.99 -.78 -7.15 -2.85 -11.5 -1.57 -3.3 -4.81 -8.47 -7.2 -11.5 -7.19 -9.1&#xA;-36.13 -38.01 -40.79 -40.75 -4.21 -2.47 -5.24 -2.59 -32.5 -3.82 -15.49 -.7&#xA;-49.76 -1.77 -76.16 -2.39 -50.13 -1.17 -64.79 -1.58 -95.5 -2.66 -10.17 -.36&#xA;-25.92 -.75 -35 -.87 -9.08 -.12 -31.35 -.71 -49.5 -1.32 -18.15 -.61 -48.75&#xA;-1.4 -68 -1.76 -48.13 -.91 -64.16 -1.24 -92 -1.93 -13.2 -.33 -34.12 -.78&#xA;-46.5 -1 -12.38 -.23 -35.33 -.73 -51 -1.12 -15.67 -.39 -32.33 -.8 -37 -.91&#xA;-4.67 -.11 -19.4 -.61 -32.73 -1.1 -22.46 -.83 -24.38 -1.04 -26.29 -2.95&#xA;-1.54 -1.54 -2.69 -5.57 -4.59 -15.99 -4.89 -26.89 -11.39 -68.83 -11.39&#xA;-73.48 -0 -2.58 2.25 -15.89 5.01 -29.58 2.75 -13.69 6.35 -32.53 8 -41.88&#xA;1.65 -9.35 3.67 -20.38 4.5 -24.5 .83 -4.12 4.21 -21.68 7.52 -39 3.31 -17.32&#xA;6.66 -34.65 7.45 -38.5 .79 -3.85 2.61 -13.53 4.06 -21.5 1.44 -7.97 3.3&#xA;-15.54 4.12 -16.82 .85 -1.33 6.49 -4.77 13.17 -8.05 22.5 -11.04 89.3 -45.18&#xA;93.1 -47.57 2.11 -1.33 15.93 -8.52 30.71 -15.97 14.78 -7.45 32.6 -16.51&#xA;39.59 -20.11 11.77 -6.08 12.9 -6.46 15.25 -5.23 2.49 1.31 16.46 17.08 33.43&#xA;37.76 4.73 5.77 15.36 18.4 23.61 28.07 8.25 9.67 17.14 20.26 19.76 23.52&#xA;2.62 3.26 9.97 12 16.35 19.43 6.37 7.43 20.24 23.85 30.82 36.5 10.58 12.65&#xA;21.24 24.84 23.7 27.08 2.45 2.24 7.12 5.34 10.38 6.88 9.01 4.26 37.22 13.31&#xA;105 33.67 39.03 11.73 55.43 16.82 70.5 21.88 7.97 2.68 17.04 5.57 20.15&#xA;6.43 3.11 .86 7.52 1.56 9.81 1.56 2.29 0 9.49 -1.35 16.02 -3 6.52 -1.65&#xA;13.1 -3.46 14.6 -4.04 1.51 -.57 20.33 -5.48 41.83 -10.92 21.5 -5.43 45.61&#xA;-11.68 53.59 -13.88 7.97 -2.2 27.1 -7.23 42.5 -11.18 46.66 -11.96 74.78&#xA;-19.97 79.14 -22.52 3.92 -2.3 12.2 -10.97 20.92 -21.91 2.17 -2.72 12.22&#xA;-14.42 22.33 -26 10.11 -11.58 20.9 -24.21 23.96 -28.06 8.48 -10.66 27.73&#xA;-33.15 35.09 -41 3.61 -3.85 9.47 -10.6 13.04 -15 11 -13.57 47.09 -55.64&#xA;53.63 -62.5 3.41 -3.57 11.97 -13.28 19.04 -21.56 17.8 -20.86 36.26 -41.95&#xA;53.28 -60.89 7.94 -8.83 16.15 -18.71 18.25 -21.96 3.2 -4.94 3.82 -6.77 3.82&#xA;-11.17 0 -4.42 -.53 -5.96 -3.29 -9.59 -1.81 -2.38 -5.42 -5.92 -8.01 -7.89&#xA;-2.6 -1.96 -12.03 -7.77 -20.96 -12.9 -8.93 -5.13 -25.91 -15.25 -37.74&#xA;-22.49 -11.82 -7.23 -25.32 -15.43 -30 -18.22 -4.68 -2.78 -17.72 -10.8 -29&#xA;-17.82 -11.28 -7.01 -24.1 -14.78 -28.5 -17.26 -9.36 -5.27 -33.74 -19.53&#xA;-44.5 -26.01 -4.12 -2.49 -18.08 -10.89 -31 -18.69 -12.92 -7.79 -26.91&#xA;-16.04 -31.07 -18.33 -4.16 -2.29 -8.35 -5.03 -9.3 -6.09 -1.67 -1.84 -1.6 -2&#xA;1.57 -3.93 1.82 -1.11 9.17 -4.87 16.35 -8.36 12.97 -6.32 74.76 -37.91&#xA;169.45 -86.65 69.56 -35.8 132.94 -68.29 196 -100.48 11.82 -6.04 42.2 -21.66&#xA;67.5 -34.73 25.3 -13.06 58.6 -30.12 74 -37.91 15.4 -7.79 34.3 -17.46 42&#xA;-21.49 36.17 -18.94 114.64 -58.74 118.59 -60.16 2.43 -.87 17.46 -4.04 33.41&#xA;-7.05 15.95 -3.01 34.4 -6.56 41 -7.89 6.6 -1.33 20.78 -4.03 31.5 -6 10.72&#xA;-1.97 24 -4.46 29.5 -5.52 5.5 -1.06 16.53 -3.12 24.5 -4.56 7.97 -1.45 24.4&#xA;-4.56 36.5 -6.92 12.1 -2.36 23.65 -4.34 25.66 -4.4 3.54 -.1 4.7 .98 34.5&#xA;32.12z m-975.66 393.55 c12.44 7.23 149.18 89.33 191.5 114.96 18.15 11 37.72&#xA;22.83 43.5 26.3 5.78 3.47 11.54 7.24 12.81 8.37 1.27 1.13 2.12 2.76 1.9&#xA;3.61 -.37 1.43 -20.55 25.55 -35.47 42.41 -3.44 3.89 -18.16 20.8 -32.71&#xA;37.57 -14.55 16.78 -29.28 33.68 -32.74 37.57 -8.07 9.08 -31.08 36.15 -37.35&#xA;43.93 -2.66 3.3 -13.87 16.35 -24.93 29 -11.06 12.65 -26.99 31.1 -35.41 41&#xA;-26.55 31.22 -27.24 31.91 -34.29 34.85 -3.47 1.44 -18.16 5.57 -32.65 9.17&#xA;-14.49 3.6 -32.71 8.36 -40.5 10.58 -7.79 2.22 -28.79 7.8 -46.66 12.41&#xA;-57.33 14.77 -86.38 22.39 -91.41 23.96 -2.7 .84 -6.55 1.53 -8.56 1.53 -2.01&#xA;0 -10.6 -2.21 -19.09 -4.91 -8.49 -2.7 -23.09 -7.25 -32.44 -10.11 -9.35&#xA;-2.86 -35 -10.97 -57 -18.03 -22 -7.06 -46.97 -14.94 -55.5 -17.5 -8.53 -2.56&#xA;-17.53 -5.69 -20 -6.96 -2.47 -1.26 -7.88 -5.82 -12.01 -10.14 -4.13 -4.32&#xA;-13.24 -14.6 -20.24 -22.85 -7 -8.25 -15.32 -17.95 -18.49 -21.56 -8.45 -9.62&#xA;-26.52 -30.78 -36.26 -42.48 -4.67 -5.61 -12.55 -14.87 -17.5 -20.58 -4.95&#xA;-5.71 -13.03 -15.33 -17.96 -21.38 -4.93 -6.05 -11.11 -13.4 -13.75 -16.33&#xA;-2.63 -2.93 -4.79 -5.9 -4.79 -6.6 0 -.7 .79 -1.95 1.75 -2.78 .96 -.83 13.9&#xA;-7.71 28.75 -15.28 93.44 -47.64 112.6 -57.48 114 -58.52 .55 -.41 24.4&#xA;-12.56 53 -27 28.6 -14.44 52.45 -26.59 53 -27 .55 -.41 30.7 -15.71 67 -34&#xA;36.3 -18.29 69.15 -34.96 73 -37.05 3.85 -2.09 17.12 -8.94 29.5 -15.21 12.38&#xA;-6.28 38.6 -19.61 58.27 -29.63 27.3 -13.91 36.3 -18.06 38 -17.54 1.22 .37&#xA;6.5 3.17 11.73 6.21z m1523.87 265.73 c1.71 10.45 4.48 28.45 6.16 40 8.57&#xA;59.14 17.44 119.49 21.91 149 2.75 18.15 6.61 43.8 8.59 57 1.97 13.2 5.13&#xA;34.12 7.01 46.5 1.88 12.38 5.02 34.43 6.98 49 1.96 14.57 5.33 38.65 7.5&#xA;53.5 8.19 56.09 12.08 82.41 14.05 95 1.12 7.15 4.95 33.03 8.51 57.5 3.56&#xA;24.47 8.52 58.22 11.02 75 12.21 82.11 22.57 154.16 25.94 180.5 1.48 11.55&#xA;6.71 47.1 11.63 79 12.32 79.92 14.23 92.92 18.39 125 2 15.4 4.16 30.7 4.82&#xA;34 .66 3.3 1.04 6.99 .85 8.2 -.29 1.89 -.68 2.07 -2.77 1.28 -1.34 -.51 -5.7&#xA;-3.38 -9.69 -6.37 -3.99 -2.99 -12.07 -8.74 -17.97 -12.78 -5.89 -4.03 -18.89&#xA;-12.92 -28.88 -19.75 -9.99 -6.83 -24.29 -16.89 -31.79 -22.36 -7.49 -5.47&#xA;-23.64 -16.62 -35.89 -24.79 -13.62 -9.08 -23.65 -15.11 -25.85 -15.52 -2.14&#xA;-.4 -5.14 -.21 -7.45 .48 -2.12 .64 -5.77 2.61 -8.1 4.39 -2.33 1.78 -5.38&#xA;5.45 -6.78 8.17 -2.22 4.32 -2.54 6.2 -2.55 14.99 -.02 13.61 1.39 65.25 2.04&#xA;74.55 .29 4.12 .72 17.85 .97 30.5 .25 12.65 .91 30.43 1.47 39.5 .56 9.07&#xA;1.31 31.46 1.67 49.75 .44 22.46 .33 33.25 -.36 33.25 -.56 0 -2.54 -1.11&#xA;-4.41 -2.46 -1.87 -1.35 -8.08 -5.63 -13.8 -9.5 -5.85 -3.96 -11.47 -7.04&#xA;-12.85 -7.04 -1.34 0 -3.74 .92 -5.32 2.05 -1.58 1.13 -4.22 4.87 -5.87 8.31&#xA;-1.64 3.45 -3.64 10.06 -4.44 14.7 -2.19 12.73 -10.2 73.8 -26.16 199.44&#xA;-3.07 24.2 -7.14 56.11 -9.03 70.92 -1.89 14.81 -3.45 28.53 -3.47 30.5 -.02&#xA;1.97 -.59 4.57 -1.26 5.79 -1.06 1.92 -1.52 2.05 -3.41 1 -2.36 -1.31 -20.79&#xA;-15.3 -45.15 -34.26 -23.25 -18.1 -28.7 -22.29 -57.26 -44.04 -14.51 -11.05&#xA;-36.5 -27.88 -48.88 -37.41 -16.73 -12.88 -24.84 -18.43 -31.62 -21.66 -5.01&#xA;-2.39 -9.99 -4.34 -11.05 -4.34 -1.07 0 -4.11 1.38 -6.76 3.06 -2.65 1.68&#xA;-12.98 11.02 -22.95 20.75 -9.97 9.73 -22.73 22.05 -28.37 27.37 -5.63 5.32&#xA;-34.43 33.64 -64 62.93 -74.83 74.13 -105.44 104.24 -114.76 112.88 -4.4 4.08&#xA;-38.8 37.82 -76.45 74.97 -70.6 69.67 -93.35 91.99 -154 151.05 -52.43 51.07&#xA;-105.34 103.21 -142.55 140.5 -18.15 18.19 -51.96 51.88 -75.14 74.88 -30.14&#xA;29.9 -42.67 41.71 -43.99 41.45 -2.11 -.41 -2.64 -3.14 -4.3 -22.26 -.58&#xA;-6.64 -1.95 -22.43 -3.06 -35.08 -1.1 -12.65 -3.36 -35.6 -5.02 -51 -1.66&#xA;-15.4 -3.68 -34.07 -4.48 -41.5 -.8 -7.43 -2.35 -21.15 -3.45 -30.5 -1.1&#xA;-9.35 -2.92 -26.45 -4.06 -38 -1.14 -11.55 -2.71 -26.62 -3.49 -33.5 -1.91&#xA;-16.68 -4.13 -37.98 -6.02 -57.5 -.85 -8.8 -2.22 -22.75 -3.05 -31 -.83 -8.25&#xA;-1.96 -19.72 -2.5 -25.5 -1.39 -14.8 -5.75 -57.76 -6.95 -68.5 -1.35 -12.05&#xA;-8.07 -73.28 -12.46 -113.5 -1.95 -17.88 -3.98 -37 -4.5 -42.5 -1.48 -15.43&#xA;-3.93 -39.98 -5.04 -50.5 -.55 -5.22 -1.7 -17.15 -2.54 -26.5 -.85 -9.35 -2.4&#xA;-24.88 -3.46 -34.5 -1.94 -17.69 -2.49 -23.22 -5.97 -59.7 -1.06 -11.11 -3.08&#xA;-29.86 -4.49 -41.67 -1.41 -11.81 -2.65 -23.46 -2.76 -25.9 -.12 -2.78 .44&#xA;-5.4 1.52 -7.04 1.54 -2.35 23.53 -22.04 37.71 -33.77 14.61 -12.09 40.67&#xA;-34.3 60.9 -51.91 12.32 -10.73 25.87 -22.43 30.1 -26 27.27 -23.03 85.81&#xA;-73.19 101.97 -87.36 7.44 -6.52 18.7 -16.01 25.03 -21.09 6.32 -5.07 16&#xA;-13.24 21.5 -18.15 12.44 -11.1 36.08 -31.49 48 -41.42 4.95 -4.12 17.79&#xA;-15.14 28.55 -24.49 10.75 -9.35 26.5 -22.84 35 -29.98 8.5 -7.14 22.65&#xA;-19.32 31.45 -27.06 8.8 -7.75 23.23 -20.13 32.06 -27.52 22.43 -18.76 49.8&#xA;-42.07 77.94 -66.38 13.2 -11.4 48.51 -41.72 78.46 -67.39 67.8 -58.1 94.61&#xA;-81.52 99.21 -86.67 3.27 -3.65 6.88 -9.33 23.86 -37.5 3.15 -5.22 10.11&#xA;-16.7 15.46 -25.5 5.36 -8.8 18.53 -30.62 29.29 -48.5 29.15 -48.46 45.76&#xA;-76.03 66.87 -111 10.46 -17.32 24.12 -40.05 30.36 -50.5 6.24 -10.45 15.23&#xA;-25.07 19.97 -32.5 4.74 -7.43 15.3 -24.75 23.47 -38.5 8.16 -13.75 18.45&#xA;-31.07 22.86 -38.5 4.41 -7.43 15.53 -25.65 24.72 -40.5 9.19 -14.85 23.75&#xA;-39.06 32.37 -53.8 8.62 -14.74 20.66 -34.99 26.75 -45 6.1 -10.01 17.85&#xA;-29.45 26.13 -43.2 30.02 -49.91 57.99 -95.04 59.97 -96.77 1.94 -1.7 2.08&#xA;-1.7 3.26 0 .68 .98 2.64 10.32 4.35 20.77z m-2101.87 837.02 c23.38 5.27&#xA;59.6 13.39 80.5 18.04 20.9 4.65 47.45 10.69 59 13.42 11.55 2.73 29.1 6.8 39&#xA;9.05 9.9 2.25 26.27 6.1 36.37 8.56 10.1 2.46 31.93 7.42 48.5 11.01 30.54&#xA;6.63 75.07 16.87 108.47 24.96 23.52 5.69 33.3 10.17 63.16 28.92 6.33 3.97&#xA;18.47 11.27 27 16.21 17.62 10.22 23.37 13.67 70.5 42.32 18.7 11.37 41.2&#xA;24.86 50 29.98 8.8 5.12 21.4 12.7 28 16.84 6.6 4.14 19.42 12 28.5 17.46&#xA;9.08 5.46 19.88 11.96 24 14.44 4.12 2.48 24.82 14.88 46 27.55 21.18 12.67&#xA;44.8 26.85 52.5 31.5 7.7 4.66 21.65 12.97 31 18.49 9.35 5.51 19.93 11.82&#xA;23.5 14.02 11.53 7.1 96.44 58.02 107.06 64.21 5.66 3.3 11.71 7.35 13.44 9&#xA;l3.15 3 2.27 22.5 c1.25 12.38 3.59 34.43 5.2 49 1.61 14.57 4.92 45.4 7.35&#xA;68.5 2.43 23.1 4.91 46.5 5.5 52 2.61 24.23 7.31 69.74 10.55 102 1.93 19.25&#xA;4.15 40.18 4.94 46.5 .79 6.32 2.14 19.15 3.02 28.5 .87 9.35 3.16 31.18 5.09&#xA;48.5 1.93 17.32 4.14 37.8 4.92 45.5 .78 7.7 2.33 22.78 3.44 33.5 5.84 56.56&#xA;7.29 70.88 8.61 85.5 2.92 32.31 4.68 49.67 11.95 118 2.46 23.1 5.82 55.28&#xA;7.48 71.5 1.65 16.22 3.46 32.2 4 35.5 .58 3.47 .65 7.26 .17 9 l-.83 3 -9.46&#xA;-9.5 c-5.2 -5.22 -13.46 -14.22 -18.35 -20 -4.89 -5.78 -13.25 -15 -18.59&#xA;-20.5 -5.34 -5.5 -17.29 -18.61 -26.56 -29.13 -9.27 -10.52 -22.26 -24.94&#xA;-28.86 -32.04 -20.56 -22.12 -38.87 -42.37 -49.13 -54.35 -5.43 -6.33 -16.93&#xA;-19.45 -25.57 -29.14 -16.79 -18.84 -20.71 -21.85 -28.51 -21.85 -2.57 0&#xA;-6.12 1.07 -9.56 2.88 -3.02 1.59 -18.02 11.33 -33.35 21.66 -30.45 20.52&#xA;-108.68 72.82 -117.41 78.51 -9.8 6.38 -43.37 29.23 -46.96 31.97 -4.62 3.52&#xA;-7.78 4.29 -8.86 2.14 -.46 -.91 -3.65 -13.36 -7.09 -27.66 -8.76 -36.43&#xA;-21.81 -89.15 -29.95 -121 -3.8 -14.85 -9.92 -39.82 -13.62 -55.5 -3.69&#xA;-15.68 -8.97 -37.28 -11.73 -48 -2.76 -10.72 -6.78 -26.7 -8.94 -35.5 -10.91&#xA;-44.43 -29.36 -119.91 -32.89 -134.5 -2.19 -9.07 -4.85 -19.65 -5.9 -23.5&#xA;-1.05 -3.85 -5.75 -22.85 -10.45 -42.22 -4.95 -20.42 -9.73 -37.86 -11.39&#xA;-41.5 -1.6 -3.52 -4.45 -7.68 -6.5 -9.48 -3.44 -3.02 -9 -5.29 -12.98 -5.3&#xA;-3.44 -.01 -9.26 3.13 -13.53 7.29 -2.37 2.31 -5.59 6.45 -7.16 9.2 -3.04&#xA;5.34 -19.46 43.15 -33 76 -7.57 18.37 -18.41 44.28 -28.09 67.14 -5.54 13.09&#xA;-26.86 65.74 -29.53 72.91 -1.24 3.33 -5.37 13.45 -9.19 22.5 -6.43 15.24&#xA;-17.11 40.75 -20.48 48.95 -.79 1.93 -2.15 4.09 -3.03 4.81 -1.34 1.11 -1.73&#xA;1.03 -2.54 -.5 -.52 -1 -2.15 -8.11 -3.62 -15.81 -1.47 -7.7 -3.53 -18.5&#xA;-4.58 -24 -1.05 -5.5 -2.84 -15.4 -3.98 -22 -1.75 -10.16 -5.76 -31.28 -15.54&#xA;-82 -.95 -4.95 -2.31 -12.6 -3.01 -17 -3.39 -21.32 -13 -76.28 -16.6 -94.98&#xA;-2.23 -11.54 -4.73 -22.34 -5.56 -24 -1.98 -3.95 -8.05 -10.29 -11.64 -12.17&#xA;-3.44 -1.81 -12.65 -1.95 -15.84 -.26 -7.18 3.82 -16.03 13.47 -45.81 49.91&#xA;-10.11 12.38 -21.11 25.7 -24.45 29.6 -15.54 18.21 -32.54 39.24 -37.3 46.13&#xA;-4.76 6.91 -8.48 11.27 -9.61 11.27 -.24 0 -.71 -1.12 -1.06 -2.48 -.34 -1.37&#xA;.05 -7.78 .87 -14.25 5.87 -46.37 7.46 -59.91 8.01 -68.27 .34 -5.22 1.27&#xA;-14.45 2.07 -20.5 3.31 -25.21 8.48 -66.44 10.9 -87 1.43 -12.1 3.25 -26.72&#xA;4.06 -32.5 .81 -5.78 1.92 -16.12 2.48 -23 .56 -6.88 1.67 -17.9 2.47 -24.5&#xA;2.22 -18.26 2.34 -19.2 5.58 -46.5 5.19 -43.69 11.86 -94.32 14.56 -110.52&#xA;.92 -5.49 1.67 -14.03 1.69 -18.98 .02 -7.31 -.44 -10.12 -2.44 -15 -1.36&#xA;-3.3 -4.83 -13.43 -7.73 -22.5 -2.89 -9.07 -8.78 -27.53 -13.08 -41 -4.3&#xA;-13.47 -9.92 -31.25 -12.49 -39.5 -8.95 -28.71 -16.64 -52.07 -20.7 -62.88&#xA;-2.25 -5.98 -5.57 -13.49 -7.38 -16.69 -5.33 -9.44 -26.99 -37.32 -33.87&#xA;-43.61 -7.01 -6.41 -44.54 -34.29 -71.09 -52.82 -18.56 -12.95 -36.1 -26.2&#xA;-38.56 -29.13 -.86 -1.02 -1.53 -2.31 -1.48 -2.86 .04 -.55 .47 -1.61 .94&#xA;-2.36 .57 -.9 1.92 -1.17 3.98 -.79 1.72 .32 22.25 4.89 45.62 10.16z" fill="#f96b05" fill-rule="evenodd" stroke="#f96b05" stroke-linejoin="round" stroke-width="0.80"/>
<path d="M2375.5 679.61 c-1.65 .16 -27.07 .82 -56.5 1.46 -29.43 .65 -65.65 1.53&#xA;-80.5 1.97 -13.05 .38 -19.5 .58 -18.27 .62 1.23 .05 10.13 -.05 27.77 -.26&#xA;32.96 -.39 143.92 -2.96 160 -3.71 3.57 -.17 -1.6 -.32 -11.5 -.34 -9.9 -.02&#xA;-19.35 .1 -21 .25z" fill="#f5be84" fill-rule="evenodd" stroke="none"/>
<path d="M1874.5 691.6 c-23.65 .72 -57.17 1.75 -74.5 2.27 l-31.5 .96 36.5 -.44&#xA;c20.08 -.24 51.35 -.92 69.5 -1.5 18.15 -.59 43.8 -1.41 57 -1.82 l24 -.75&#xA;-19 -.02 c-10.45 -.01 -38.35 .58 -62 1.3z" fill="#fbc586" fill-rule="evenodd" stroke="none"/>
<path d="M2348.5 723.1 c-30.25 .43 -77.72 1.47 -105.5 2.31 -27.78 .84 -64 1.78 -80.5&#xA;2.09 -16.5 .31 -44.18 1.05 -61.5 1.65 -17.32 .59 -43.88 1.44 -59 1.87&#xA;l-27.5 .79 31 -.38 c17.05 -.21 45.18 -.83 62.5 -1.38 17.32 -.55 53.1 -1.46&#xA;79.5 -2.01 26.4 -.56 62.62 -1.44 80.5 -1.97 43.17 -1.27 81.99 -2.01 118.37&#xA;-2.25 16.43 -.11 29.03 -.53 28 -.93 -1.03 -.4 -3.89 -.69 -6.37 -.64 -2.47&#xA;.05 -29.25 .44 -59.5 .87z" fill="#eeb382" fill-rule="evenodd" stroke="none"/>
<path d="M1175.26 2021 c.23 2.44 .47 2.51 10.74 3.17 14.74 .94 79.1 2.72 140.5 3.87&#xA;28.6 .54 76.53 1.65 106.5 2.47 29.97 .82 62.6 1.39 72.5 1.27 7.43 -.09&#xA;11.38 -.15 12.19 -.22 .81 -.07 -1.53 -.14 -6.69 -.24 -6.88 -.14 -38.83 -.94&#xA;-71 -1.78 -32.17 -.84 -81.45 -1.98 -109.5 -2.53 -56.57 -1.12 -117.4 -2.7&#xA;-139.32 -3.62 -13.4 -.56 -14.38 -.74 -15.24 -2.74 l-.92 -2.14 .24 2.5z" fill="#f4bc87" fill-rule="evenodd" stroke="none"/>
<path d="M1568.5 2033.52 c49.32 1.53 176.01 5.16 208.5 5.99 11.28 .29 24.77 .77&#xA;29.99 1.08 5.22 .31 9.22 .29 8.89 -.04 -1.8 -1.8 -157.5 -6.63 -255.89 -7.94&#xA;l-36.5 -.49 45 1.39z" fill="#f7bc86" fill-rule="evenodd" stroke="none"/>
<path d="M1148 2066.85 c1.52 .98 22.7 1.66 85.5 2.74 19.25 .33 35.27 .77 35.59 .97&#xA;.33 .2 28.23 .83 62 1.39 33.78 .56 84.81 1.7 113.41 2.52 28.6 .82 75.4 1.95&#xA;104 2.5 28.6 .55 61 1.45 72 1.99 11 .54 39.8 1.5 64 2.13 24.2 .63 52.33&#xA;1.43 62.5 1.79 10.17 .35 19.85 .42 21.5 .13 3.44 -.59 -11.8 -1.16 -75 -2.84&#xA;-24.75 -.66 -61.2 -1.86 -81 -2.67 -19.8 -.81 -54.45 -1.71 -77 -2 -22.55&#xA;-.29 -47.75 -.76 -56 -1.03 -60.51 -1.98 -84.3 -2.58 -138.92 -3.51 -34.06&#xA;-.58 -62.23 -1.25 -62.61 -1.48 -.38 -.23 -28.54 -.89 -62.58 -1.47 -34.04&#xA;-.57 -63.47 -1.29 -65.39 -1.59 -2.84 -.44 -3.22 -.36 -2 .42z" fill="#efb380" fill-rule="evenodd" stroke="none"/>
<path d="M358.1 2303.5 c-.06 2.12 .11 3.38 4.9 35.5 1.68 11.28 3.69 25.45 4.48 31.5&#xA;4.9 37.97 7.45 59 7.98 66 .63 8.16 2.83 28.6 4.64 43 .55 4.4 1.89 16.1 2.97&#xA;26 2.23 20.46 4.65 35.17 4.82 29.36 .06 -2 -.52 -6.95 -1.3 -11 -.77 -4.05&#xA;-1.91 -13.43 -2.53 -20.86 -.62 -7.43 -1.76 -18.45 -2.54 -24.5 -.78 -6.05&#xA;-2.38 -20.45 -3.56 -32 -2.53 -24.77 -9.27 -76.89 -14.95 -115.5 -3.94 -26.84&#xA;-4.8 -31.61 -4.92 -27.5z" fill="#eca26c" fill-rule="evenodd" stroke="none"/>
<path d="M1089 2370 c0 .55 .11 1.34 .25 1.75 .14 .41 34.99 .75 77.45 .75 51.47 0&#xA;76.86 -.33 76.2 -1 -1.05 -1.05 -140.98 -.93 -148.15 .12 -2.99 .44 -3.75 .23&#xA;-3.75 -1.04 0 -.87 -.45 -1.59 -1 -1.59 -.55 0 -1 .45 -1 1z" fill="#f4bc87" fill-rule="evenodd" stroke="none"/>
<path d="M1014 2414.06 c-1.92 .31 5.05 .93 15.5 1.38 23.53 1.02 183.51 -.13 189&#xA;-1.36 4.33 -.97 -198.42 -.99 -204.5 -.02z" fill="#f6bb84" fill-rule="evenodd" stroke="none"/>
<path d="M604.22 2567 c-3.35 23.24 -4.83 40.47 -7.72 89.5 -.32 5.5 -1.22 18.55 -1.99&#xA;29 -.77 10.45 -1.67 26.65 -2 36 -.89 25.15 -2.33 45.82 -4.61 65.82 -1.11&#xA;9.8 -1.88 19.03 -1.71 20.5 .27 2.34 2.19 -12.73 4.85 -37.99 .44 -4.22 1.3&#xA;-19.3 1.89 -33.5 .6 -14.2 1.55 -32.35 2.11 -40.33 .56 -7.97 2.36 -34.75&#xA;3.99 -59.5 1.69 -25.56 4.07 -52.94 5.51 -63.39 1.4 -10.11 2.4 -19.11 2.23&#xA;-20 -.18 -.89 -1.32 5.36 -2.55 13.89z" fill="#f1c89b" fill-rule="evenodd" stroke="none"/>
<path d="M3460.59 2605.5 c.43 35.55 2.99 116.56 4.38 138.5 .54 8.53 1.29 28.03 1.67&#xA;43.34 .57 23.4 .46 27.99 -.73 28.73 -1.38 .88 -1.37 .89 .5 .91 1.85 .01&#xA;1.89 -.91 1.2 -31.23 -.39 -17.19 -1.13 -38.22 -1.65 -46.75 -.52 -8.53 -1.84&#xA;-45.88 -2.95 -83 -2.37 -79.71 -2.92 -91.21 -2.43 -50.5z" fill="#f9ab6b" fill-rule="evenodd" stroke="none"/>
</svg>